<?xml version="1.0" encoding="utf-8"?>
<!-- Generator: Adobe Illustrator 27.5.0, SVG Export Plug-In . SVG Version: 6.00 Build 0)  -->
<svg version="1.1" xmlns="http://www.w3.org/2000/svg" xmlns:xlink="http://www.w3.org/1999/xlink" x="0px" y="0px"
	 viewBox="0 0 500 500" style="enable-background:new 0 0 500 500;" xml:space="preserve">
<g id="Background_complete">
	<g>
		<g>
			<g>
				<g>
					<g>
						<path style="fill:#E0E0E0;" d="M443.92,330.198H263.174c-3.232,0-5.862-2.63-5.862-5.862V61.062
							c0-3.232,2.63-5.862,5.862-5.862H443.92c3.232,0,5.862,2.629,5.862,5.862v263.273
							C449.783,327.568,447.153,330.198,443.92,330.198z M263.174,55.45c-3.095,0-5.612,2.518-5.612,5.612v263.273
							c0,3.095,2.518,5.612,5.612,5.612H443.92c3.095,0,5.612-2.518,5.612-5.612V61.062c0-3.094-2.518-5.612-5.612-5.612H263.174z"
							/>
					</g>
				</g>
				<g>
					<g>
						<path style="fill:#E0E0E0;" d="M235.493,330.198H54.746c-3.232,0-5.862-2.63-5.862-5.862V61.062
							c0-3.232,2.629-5.862,5.862-5.862h180.747c3.232,0,5.862,2.629,5.862,5.862v263.273
							C241.355,327.568,238.725,330.198,235.493,330.198z M54.746,55.45c-3.094,0-5.612,2.518-5.612,5.612v263.273
							c0,3.095,2.518,5.612,5.612,5.612h180.747c3.095,0,5.612-2.518,5.612-5.612V61.062c0-3.094-2.518-5.612-5.612-5.612H54.746z"
							/>
					</g>
				</g>
			</g>
			<g>
				<g>
					<rect x="0" y="391.267" style="fill:#E0E0E0;" width="500" height="0.25"/>
				</g>
			</g>
		</g>
		<rect x="51.672" y="405.531" style="fill:#E0E0E0;" width="16.06" height="0.25"/>
		<rect x="170.352" y="402.821" style="fill:#E0E0E0;" width="53.53" height="0.25"/>
		<rect x="68.732" y="414.821" style="fill:#E0E0E0;" width="36.25" height="0.25"/>
		<rect x="378.352" y="402.691" style="fill:#E0E0E0;" width="43.19" height="0.25"/>
		<rect x="430.452" y="402.691" style="fill:#E0E0E0;" width="6.33" height="0.25"/>
		<rect x="316.212" y="408.921" style="fill:#E0E0E0;" width="53.89" height="0.25"/>
	</g>
	<g>
		<g>
			<path style="fill:#E6E6E6;" d="M424.259,268.966c-1.633-1.234-4.016-1.374-5.783-0.339c-2.344-4.738-8.878-6.829-13.538-4.332
				c-1.216-5.105-6.246-9.029-11.493-8.966c-5.248,0.063-10.182,4.107-11.274,9.24c-0.174,0.816-0.289,1.71-0.872,2.305
				c-0.948,0.968-2.53,0.643-3.881,0.538c-4.25-0.332-8.526,2.652-9.682,6.755l58.525-0.213
				C426.774,271.971,425.892,270.199,424.259,268.966z"/>
		</g>
	</g>
	<g>
		<g>
			<path style="fill:#E6E6E6;" d="M108.838,278.374c-1.951-1.474-4.798-1.641-6.909-0.405c-2.801-5.66-10.607-8.159-16.174-5.176
				c-1.452-6.099-7.462-10.788-13.732-10.712c-6.269,0.075-12.165,4.907-13.47,11.04c-0.208,0.975-0.345,2.042-1.042,2.754
				c-1.132,1.157-3.023,0.768-4.637,0.642c-5.077-0.396-10.186,3.169-11.567,8.071l69.922-0.255
				C111.843,281.965,110.789,279.848,108.838,278.374z"/>
		</g>
	</g>
	<g>
		<g>
			<path style="fill:#E6E6E6;" d="M385.28,222.937c-1.207-0.912-2.969-1.015-4.275-0.251c-1.733-3.502-6.563-5.048-10.007-3.203
				c-0.898-3.774-4.617-6.675-8.496-6.628c-3.879,0.047-7.527,3.036-8.334,6.831c-0.128,0.603-0.213,1.264-0.645,1.704
				c-0.701,0.715-1.87,0.475-2.869,0.398c-3.141-0.245-6.302,1.96-7.157,4.993l43.263-0.158
				C387.139,225.16,386.487,223.85,385.28,222.937z"/>
		</g>
	</g>
	<g>
		<g>
			<path style="fill:#E6E6E6;" d="M128.444,101.131c-2.603-1.966-6.4-2.189-9.215-0.54c-3.736-7.55-14.148-10.882-21.574-6.904
				c-1.937-8.136-9.953-14.389-18.316-14.289c-8.363,0.101-16.226,6.545-17.967,14.726c-0.277,1.3-0.46,2.724-1.39,3.674
				c-1.51,1.543-4.032,1.025-6.185,0.857c-6.773-0.528-13.588,4.227-15.43,10.766l93.269-0.34
				C132.453,105.921,131.047,103.097,128.444,101.131z"/>
		</g>
	</g>
	<g>
		<g>
			<path style="fill:#E6E6E6;" d="M153.617,231.517c-1.442-1.09-3.547-1.213-5.107-0.299c-2.07-4.184-7.841-6.031-11.956-3.826
				c-1.074-4.509-5.516-7.974-10.15-7.919c-4.634,0.056-8.992,3.627-9.957,8.161c-0.153,0.72-0.255,1.51-0.77,2.036
				c-0.837,0.855-2.235,0.568-3.428,0.475c-3.753-0.293-7.53,2.342-8.551,5.966l51.687-0.188
				C155.838,234.172,155.059,232.607,153.617,231.517z"/>
		</g>
	</g>
	<g>
		<g>
			<path style="fill:#F0F0F0;" d="M89.721,210.219c-1.442-1.09-3.547-1.213-5.107-0.299c-2.071-4.184-7.841-6.031-11.956-3.826
				c-1.074-4.509-5.516-7.974-10.15-7.919s-8.992,3.627-9.957,8.161c-0.153,0.72-0.255,1.51-0.77,2.036
				c-0.837,0.855-2.235,0.568-3.427,0.475c-3.753-0.293-7.53,2.342-8.551,5.966l51.687-0.188
				C91.943,212.874,91.164,211.309,89.721,210.219z"/>
		</g>
	</g>
	<g>
		<g>
			<path style="fill:#F0F0F0;" d="M460.793,193.41c-1.443-1.09-3.547-1.213-5.107-0.299c-2.071-4.184-7.841-6.031-11.956-3.826
				c-1.074-4.509-5.516-7.974-10.151-7.919c-4.634,0.056-8.992,3.627-9.957,8.161c-0.153,0.72-0.255,1.51-0.77,2.036
				c-0.837,0.855-2.235,0.568-3.428,0.475c-3.753-0.293-7.53,2.342-8.551,5.966l51.687-0.188
				C463.014,196.064,462.235,194.499,460.793,193.41z"/>
		</g>
	</g>
	<g>
		<g>
			<path style="fill:#F0F0F0;" d="M250.44,56.264c-2.157-1.63-5.305-1.815-7.638-0.448c-3.097-6.258-11.727-9.02-17.882-5.723
				c-1.606-6.743-8.25-11.927-15.181-11.843c-6.931,0.083-13.449,5.425-14.892,12.205c-0.229,1.077-0.381,2.258-1.152,3.045
				c-1.252,1.279-3.342,0.85-5.126,0.71c-5.614-0.438-11.262,3.503-12.789,8.923l77.305-0.281
				C253.763,60.235,252.597,57.894,250.44,56.264z"/>
		</g>
	</g>
	<g>
		<g>
			<path style="fill:#E6E6E6;" d="M405.056,88.73c-1.783-1.347-4.384-1.5-6.313-0.37c-2.559-5.172-9.692-7.455-14.778-4.73
				c-1.327-5.573-6.818-9.857-12.547-9.788c-5.728,0.069-11.115,4.483-12.307,10.087c-0.189,0.891-0.315,1.866-0.952,2.517
				c-1.035,1.057-2.762,0.702-4.237,0.587c-4.639-0.362-9.307,2.895-10.569,7.374l63.889-0.233
				C407.802,92.011,406.839,90.077,405.056,88.73z"/>
		</g>
	</g>
	<g>
		<path style="fill:#F0F0F0;" d="M39.223,451.203c0,0,25.582-40.552,23.875-42.779c-1.707-2.227,37.111-55.177,44.349-57.354
			c3.065-0.926,8.844-10.924,14.491-22.152c7.677-15.277,15.104-32.811,15.104-32.811s3.969-0.803,9.661-0.051
			c5.706,0.753,8.887-9.53,8.887-9.53l19.891-5.197l7.472,5.197l11.281,7.12c0,0,10.668,2.197,13.981,2.411
			c3.298,0.214,35.637-51.424,35.637-51.424s6.465-4.587,9.924-4.617c3.444-0.02,9.15-4.74,9.15-4.74l11.748-2.98
			c0,0,14.126,21.166,20.475,29.313c6.348,8.157,16.753,12.775,20.226,19.721c3.473,6.937,20.387,2.176,27.042,11.137
			c6.655,8.961,98.185,107.649,98.185,107.649c10.843,11.717,27.363,51.089,27.363,51.089H39.223z"/>
		<path style="fill:#E6E6E6;" d="M315.375,304.975c-4.626,5.98,2.291,28.326,3.313,31.52l-12.244-35.456l8.931-12.815
			l-36.761-41.121v4.923c0,0-8.274-11.981-11.339-12.012c-3.064,0-8.537,16.802-8.537,16.802l-6.027-12.185
			c0,0-21.467,19.711-20.095,25.763c1.357,6.052-16.169,24.37-14.958,25.712c1.197,1.343-34.703,40.775-34.703,40.775l11.281-32.994
			c0,0-3.181-4.292-7.399-5.309c-4.203-1.027-11.179-4.343-16.578-3.814c-5.385,0.539,0,0-1.737,3.814
			c-1.737,3.804-3.648,3.163-12.93,8.564c-9.281,5.411-2.306-3.794-2.306-3.794l-9.967-1.088l-21.38,26.658
			c7.677-15.277,15.104-32.811,15.104-32.811s3.969-0.803,9.661-0.051c5.706,0.753,8.887-9.53,8.887-9.53l19.891-5.197l7.472,5.197
			l11.281,7.12c0,0,10.668,2.197,13.981,2.411c3.298,0.214,35.637-51.424,35.637-51.424s6.465-4.587,9.924-4.617
			c3.444-0.02,9.15-4.74,9.15-4.74l11.748-2.98c0,0,14.126,21.166,20.475,29.313c6.348,8.157,16.753,12.775,20.226,19.721
			c3.473,6.937,20.387,2.176,27.042,11.137h-14.549C327.867,292.465,320.367,298.527,315.375,304.975z"/>
	</g>
</g>
<g id="Background_simple" style="display:none;">
	<g style="display:inline;">
		<g>
			<path style="fill:#407BFF;" d="M393.537,99.484c-25.628-31.158-58.3-49.71-97.864-57.604
				c-17.024-3.397-31.447-5.635-47.891-7.115c-34.432-3.1-68.652,2.973-101.214,14.586l0,0
				C85.143,73.447,35.707,135.148,58.063,197.676c5.327,14.901,20.513,35.021,42.679,43.023c10.78,3.892,22.678,1.089,33.756-1.851
				c23.989-6.366,47.977-12.731,71.966-19.097c18.413-4.886,38.73-9.62,55.856-1.276c15.097,7.355,23.88,23.051,33.001,37.152
				c9.121,14.1,21.314,28.545,37.999,30.443c18.513,2.106,43.395-3.049,56.738-16.053c14.613-14.241,28.751-37.419,33.296-57.311
				C436.273,156.173,419.165,130.642,393.537,99.484z"/>
		</g>
		<g style="opacity:0.9;">
			<path style="fill:#FFFFFF;" d="M393.537,99.484c-25.628-31.158-58.3-49.71-97.864-57.604
				c-17.024-3.397-31.447-5.635-47.891-7.115c-34.432-3.1-68.652,2.973-101.214,14.586l0,0
				C85.143,73.447,35.707,135.148,58.063,197.676c5.327,14.901,20.513,35.021,42.679,43.023c10.78,3.892,22.678,1.089,33.756-1.851
				c23.989-6.366,47.977-12.731,71.966-19.097c18.413-4.886,38.73-9.62,55.856-1.276c15.097,7.355,23.88,23.051,33.001,37.152
				c9.121,14.1,21.314,28.545,37.999,30.443c18.513,2.106,43.395-3.049,56.738-16.053c14.613-14.241,28.751-37.419,33.296-57.311
				C436.273,156.173,419.165,130.642,393.537,99.484z"/>
		</g>
	</g>
</g>
<g id="Shadow">
	<g>
		<g>
			<path style="fill:#F5F5F5;" d="M458.875,454.336c0,3.387-93.517,6.132-208.875,6.132s-208.875-2.746-208.875-6.132
				c0-3.387,93.516-6.132,208.875-6.132S458.875,450.949,458.875,454.336z"/>
		</g>
	</g>
</g>
<g id="Trees">
	<g>
		<g>
			<path style="fill:#407BFF;" d="M73.922,351.893c-2.324-2.235-6.019-2.164-8.254,0.16c-0.037,0.038-0.073,0.077-0.108,0.116
				c-6.088,6.671-16.513,19.314-12.893,24.03c1.339,1.749,8.471-2.409,8.471-2.409s1.282,3.902,2.493,4.165
				c2.198,0.487,7.453-5.043,7.453-5.043s4.357,5.338,6.363,5.043c1.519-0.224,3.505-5.043,3.505-5.043s6.453,4.249,7.69,2.634
				C92.313,370.688,80.606,358.308,73.922,351.893z"/>
			<path style="opacity:0.3;" d="M73.922,351.893c-2.324-2.235-6.019-2.164-8.254,0.16c-0.037,0.038-0.073,0.077-0.108,0.116
				c-6.088,6.671-16.513,19.314-12.893,24.03c1.339,1.749,8.471-2.409,8.471-2.409s1.282,3.902,2.493,4.165
				c2.198,0.487,7.453-5.043,7.453-5.043s4.357,5.338,6.363,5.043c1.519-0.224,3.505-5.043,3.505-5.043s6.453,4.249,7.69,2.634
				C92.313,370.688,80.606,358.308,73.922,351.893z"/>
			<polygon style="fill:#263238;" points="68.783,377.955 66.156,457.555 73.057,457.555 70.43,377.955 			"/>
			<path style="fill:#407BFF;" d="M68.866,395.365c0,0-37.865,37.506-29.214,48.79c2.313,3.012,14.61-4.165,14.61-4.165
				s2.256,6.735,4.3,7.19c3.787,0.839,12.861-8.702,12.861-8.702s7.504,9.208,10.964,8.702c2.621-0.384,6.049-8.702,6.049-8.702
				s11.124,7.324,13.239,4.543C110.416,431.474,68.866,395.365,68.866,395.365z"/>
			<path style="opacity:0.3;" d="M68.866,395.365c0,0-37.865,37.506-29.214,48.79c2.313,3.012,14.61-4.165,14.61-4.165
				s2.256,6.735,4.3,7.19c3.787,0.839,12.861-8.702,12.861-8.702s7.504,9.208,10.964,8.702c2.621-0.384,6.049-8.702,6.049-8.702
				s11.124,7.324,13.239,4.543C110.416,431.474,68.866,395.365,68.866,395.365z"/>
			<path style="fill:#407BFF;" d="M69.373,360.794c0,0-26.798,26.542-20.672,34.526c1.634,2.127,10.336-2.948,10.336-2.948
				s1.602,4.767,3.044,5.088c2.685,0.596,9.099-6.158,9.099-6.158s5.312,6.517,7.766,6.158c1.852-0.276,4.281-6.158,4.281-6.158
				s7.869,5.184,9.368,3.204C98.785,386.362,69.373,360.794,69.373,360.794z"/>
			<path style="opacity:0.3;" d="M69.373,360.794c0,0-26.798,26.542-20.672,34.526c1.634,2.127,10.336-2.948,10.336-2.948
				s1.602,4.767,3.044,5.088c2.685,0.596,9.099-6.158,9.099-6.158s5.312,6.517,7.766,6.158c1.852-0.276,4.281-6.158,4.281-6.158
				s7.869,5.184,9.368,3.204C98.785,386.362,69.373,360.794,69.373,360.794z"/>
			<path style="fill:#407BFF;" d="M69.097,375.238c0,0-32.879,32.572-25.356,42.37c2.006,2.614,12.688-3.614,12.688-3.614
				s1.961,5.844,3.736,6.241c3.287,0.724,11.163-7.555,11.163-7.555s6.517,7.997,9.522,7.555c2.281-0.34,5.255-7.555,5.255-7.555
				s9.663,6.363,11.496,3.941C105.18,406.611,69.097,375.238,69.097,375.238z"/>
			<path style="opacity:0.3;" d="M69.097,375.238c0,0-32.879,32.572-25.356,42.37c2.006,2.614,12.688-3.614,12.688-3.614
				s1.961,5.844,3.736,6.241c3.287,0.724,11.163-7.555,11.163-7.555s6.517,7.997,9.522,7.555c2.281-0.34,5.255-7.555,5.255-7.555
				s9.663,6.363,11.496,3.941C105.18,406.611,69.097,375.238,69.097,375.238z"/>
		</g>
		<g>
			<path style="fill:#407BFF;" d="M169.093,351.893c-2.324-2.235-6.019-2.164-8.254,0.16c-0.037,0.038-0.073,0.077-0.108,0.116
				c-6.088,6.671-16.513,19.314-12.893,24.03c1.339,1.749,8.471-2.409,8.471-2.409s1.282,3.902,2.493,4.165
				c2.198,0.487,7.452-5.043,7.452-5.043s4.357,5.338,6.363,5.043c1.519-0.224,3.505-5.043,3.505-5.043s6.453,4.249,7.69,2.634
				C187.484,370.688,175.777,358.308,169.093,351.893z"/>
			<path style="opacity:0.3;" d="M169.093,351.893c-2.324-2.235-6.019-2.164-8.254,0.16c-0.037,0.038-0.073,0.077-0.108,0.116
				c-6.088,6.671-16.513,19.314-12.893,24.03c1.339,1.749,8.471-2.409,8.471-2.409s1.282,3.902,2.493,4.165
				c2.198,0.487,7.452-5.043,7.452-5.043s4.357,5.338,6.363,5.043c1.519-0.224,3.505-5.043,3.505-5.043s6.453,4.249,7.69,2.634
				C187.484,370.688,175.777,358.308,169.093,351.893z"/>
			<polygon style="fill:#263238;" points="163.954,377.955 161.327,457.555 168.228,457.555 165.601,377.955 			"/>
			<path style="fill:#407BFF;" d="M164.037,395.365c0,0-37.865,37.506-29.214,48.79c2.313,3.012,14.61-4.165,14.61-4.165
				s2.256,6.735,4.3,7.19c3.787,0.839,12.861-8.702,12.861-8.702s7.504,9.208,10.964,8.702c2.621-0.384,6.049-8.702,6.049-8.702
				s11.124,7.324,13.239,4.543C205.587,431.474,164.037,395.365,164.037,395.365z"/>
			<path style="opacity:0.3;" d="M164.037,395.365c0,0-37.865,37.506-29.214,48.79c2.313,3.012,14.61-4.165,14.61-4.165
				s2.256,6.735,4.3,7.19c3.787,0.839,12.861-8.702,12.861-8.702s7.504,9.208,10.964,8.702c2.621-0.384,6.049-8.702,6.049-8.702
				s11.124,7.324,13.239,4.543C205.587,431.474,164.037,395.365,164.037,395.365z"/>
			<path style="fill:#407BFF;" d="M164.544,360.794c0,0-26.798,26.542-20.672,34.526c1.634,2.127,10.336-2.948,10.336-2.948
				s1.602,4.767,3.044,5.088c2.685,0.596,9.099-6.158,9.099-6.158s5.312,6.517,7.767,6.158c1.852-0.276,4.28-6.158,4.28-6.158
				s7.869,5.184,9.368,3.204C193.956,386.362,164.544,360.794,164.544,360.794z"/>
			<path style="opacity:0.3;" d="M164.544,360.794c0,0-26.798,26.542-20.672,34.526c1.634,2.127,10.336-2.948,10.336-2.948
				s1.602,4.767,3.044,5.088c2.685,0.596,9.099-6.158,9.099-6.158s5.312,6.517,7.767,6.158c1.852-0.276,4.28-6.158,4.28-6.158
				s7.869,5.184,9.368,3.204C193.956,386.362,164.544,360.794,164.544,360.794z"/>
			<path style="fill:#407BFF;" d="M164.268,375.238c0,0-32.879,32.572-25.357,42.37c2.006,2.614,12.688-3.614,12.688-3.614
				s1.961,5.844,3.736,6.241c3.287,0.724,11.163-7.555,11.163-7.555s6.517,7.997,9.522,7.555c2.281-0.34,5.255-7.555,5.255-7.555
				s9.663,6.363,11.496,3.941C200.352,406.611,164.268,375.238,164.268,375.238z"/>
			<path style="opacity:0.3;" d="M164.268,375.238c0,0-32.879,32.572-25.357,42.37c2.006,2.614,12.688-3.614,12.688-3.614
				s1.961,5.844,3.736,6.241c3.287,0.724,11.163-7.555,11.163-7.555s6.517,7.997,9.522,7.555c2.281-0.34,5.255-7.555,5.255-7.555
				s9.663,6.363,11.496,3.941C200.352,406.611,164.268,375.238,164.268,375.238z"/>
		</g>
		<g>
			<polygon style="fill:#263238;" points="121.361,350.263 117.82,457.555 127.122,457.555 123.581,350.263 			"/>
			<path style="fill:#407BFF;" d="M121.474,373.73c0,0-51.038,50.554-39.377,65.764c3.118,4.06,19.693-5.614,19.693-5.614
				s3.04,9.078,5.796,9.691c5.105,1.132,17.335-11.729,17.335-11.729s10.114,12.412,14.778,11.729
				c3.533-0.518,8.154-11.729,8.154-11.729s14.994,9.872,17.844,6.124C177.478,422.401,121.474,373.73,121.474,373.73z"/>
			<path style="fill:#407BFF;" d="M121.785,346.601c0,0-44.318,43.903-34.178,57.11c2.703,3.524,17.102-4.871,17.102-4.871
				s2.643,7.877,5.035,8.413c4.431,0.976,15.046-10.183,15.046-10.183s8.784,10.779,12.835,10.183
				c3.075-0.458,7.083-10.183,7.083-10.183s13.025,8.577,15.495,5.312C170.421,388.889,121.785,346.601,121.785,346.601z"/>
			<path style="fill:#407BFF;" d="M122.156,327.132c0,0-36.121,35.776-27.864,46.538c2.203,2.868,13.932-3.973,13.932-3.973
				s2.159,6.426,4.103,6.858c3.619,0.803,12.265-8.3,12.265-8.3s7.16,8.784,10.468,8.3c2.496-0.371,5.77-8.3,5.77-8.3
				s10.607,6.987,12.628,4.319C161.801,361.595,122.156,327.132,122.156,327.132z"/>
			<path style="fill:#407BFF;" d="M128.288,315.135c-3.132-3.013-8.113-2.916-11.126,0.216c-0.049,0.051-0.098,0.103-0.146,0.156
				c-8.205,8.991-22.258,26.033-17.378,32.39c1.805,2.358,11.418-3.248,11.418-3.248s1.727,5.26,3.36,5.614
				c2.963,0.656,10.045-6.798,10.045-6.798s5.873,7.195,8.577,6.798c2.047-0.302,4.725-6.798,4.725-6.798s8.698,5.727,10.365,3.55
				C153.077,340.468,137.297,323.781,128.288,315.135z"/>
		</g>
	</g>
	<g>
		<g>
			<path style="fill:#407BFF;" d="M403.474,351.893c-2.323-2.235-6.019-2.164-8.254,0.16c-0.037,0.038-0.073,0.077-0.108,0.116
				c-6.088,6.671-16.513,19.314-12.893,24.03c1.339,1.749,8.471-2.409,8.471-2.409s1.282,3.902,2.493,4.165
				c2.198,0.487,7.453-5.043,7.453-5.043s4.357,5.338,6.363,5.043c1.519-0.224,3.505-5.043,3.505-5.043s6.453,4.249,7.69,2.634
				C421.865,370.688,410.157,358.308,403.474,351.893z"/>
			<path style="opacity:0.3;" d="M403.474,351.893c-2.323-2.235-6.019-2.164-8.254,0.16c-0.037,0.038-0.073,0.077-0.108,0.116
				c-6.088,6.671-16.513,19.314-12.893,24.03c1.339,1.749,8.471-2.409,8.471-2.409s1.282,3.902,2.493,4.165
				c2.198,0.487,7.453-5.043,7.453-5.043s4.357,5.338,6.363,5.043c1.519-0.224,3.505-5.043,3.505-5.043s6.453,4.249,7.69,2.634
				C421.865,370.688,410.157,358.308,403.474,351.893z"/>
			<polygon style="fill:#263238;" points="398.335,377.955 395.707,457.555 402.609,457.555 399.981,377.955 			"/>
			<path style="fill:#407BFF;" d="M398.418,395.365c0,0-37.865,37.506-29.214,48.79c2.313,3.012,14.61-4.165,14.61-4.165
				s2.256,6.735,4.3,7.19c3.787,0.839,12.861-8.702,12.861-8.702s7.504,9.208,10.964,8.702c2.621-0.384,6.049-8.702,6.049-8.702
				s11.124,7.324,13.239,4.543C439.967,431.474,398.418,395.365,398.418,395.365z"/>
			<path style="opacity:0.3;" d="M398.418,395.365c0,0-37.865,37.506-29.214,48.79c2.313,3.012,14.61-4.165,14.61-4.165
				s2.256,6.735,4.3,7.19c3.787,0.839,12.861-8.702,12.861-8.702s7.504,9.208,10.964,8.702c2.621-0.384,6.049-8.702,6.049-8.702
				s11.124,7.324,13.239,4.543C439.967,431.474,398.418,395.365,398.418,395.365z"/>
			<path style="fill:#407BFF;" d="M398.924,360.794c0,0-26.798,26.542-20.672,34.526c1.634,2.127,10.336-2.948,10.336-2.948
				s1.602,4.767,3.044,5.088c2.685,0.596,9.099-6.158,9.099-6.158s5.312,6.517,7.766,6.158c1.852-0.276,4.281-6.158,4.281-6.158
				s7.869,5.184,9.368,3.204C428.337,386.362,398.924,360.794,398.924,360.794z"/>
			<path style="opacity:0.3;" d="M398.924,360.794c0,0-26.798,26.542-20.672,34.526c1.634,2.127,10.336-2.948,10.336-2.948
				s1.602,4.767,3.044,5.088c2.685,0.596,9.099-6.158,9.099-6.158s5.312,6.517,7.766,6.158c1.852-0.276,4.281-6.158,4.281-6.158
				s7.869,5.184,9.368,3.204C428.337,386.362,398.924,360.794,398.924,360.794z"/>
			<path style="fill:#407BFF;" d="M398.649,375.238c0,0-32.879,32.572-25.356,42.37c2.006,2.614,12.688-3.614,12.688-3.614
				s1.961,5.844,3.736,6.241c3.287,0.724,11.163-7.555,11.163-7.555s6.517,7.997,9.522,7.555c2.281-0.34,5.255-7.555,5.255-7.555
				s9.663,6.363,11.496,3.941C434.732,406.611,398.649,375.238,398.649,375.238z"/>
			<path style="opacity:0.3;" d="M398.649,375.238c0,0-32.879,32.572-25.356,42.37c2.006,2.614,12.688-3.614,12.688-3.614
				s1.961,5.844,3.736,6.241c3.287,0.724,11.163-7.555,11.163-7.555s6.517,7.997,9.522,7.555c2.281-0.34,5.255-7.555,5.255-7.555
				s9.663,6.363,11.496,3.941C434.732,406.611,398.649,375.238,398.649,375.238z"/>
		</g>
		<g>
			<polygon style="fill:#263238;" points="430.415,370.292 427.535,457.555 435.101,457.555 432.221,370.292 			"/>
			<path style="fill:#407BFF;" d="M430.507,389.378c0,0-41.51,41.117-32.026,53.488c2.536,3.302,16.017-4.566,16.017-4.566
				s2.473,7.383,4.714,7.882c4.152,0.92,14.099-9.54,14.099-9.54s8.226,10.095,12.02,9.54c2.873-0.421,6.632-9.54,6.632-9.54
				s12.195,8.03,14.513,4.981C476.056,428.964,430.507,389.378,430.507,389.378z"/>
			<path style="fill:#407BFF;" d="M430.759,367.313c0,0-36.045,35.707-27.797,46.448c2.199,2.866,13.909-3.962,13.909-3.962
				s2.15,6.407,4.096,6.842c3.604,0.794,12.237-8.282,12.237-8.282s7.144,8.767,10.439,8.282c2.501-0.372,5.76-8.282,5.76-8.282
				s10.594,6.976,12.603,4.32C470.317,401.707,430.759,367.313,430.759,367.313z"/>
			<path style="fill:#407BFF;" d="M431.062,351.479c0,0-29.378,29.097-22.662,37.85c1.791,2.332,11.331-3.231,11.331-3.231
				s1.756,5.227,3.337,5.578c2.943,0.653,9.975-6.751,9.975-6.751s5.824,7.144,8.514,6.751c2.03-0.302,4.693-6.751,4.693-6.751
				s8.626,5.683,10.27,3.512C463.306,379.508,431.062,351.479,431.062,351.479z"/>
			<path style="fill:#407BFF;" d="M436.049,341.721c-2.547-2.45-6.598-2.372-9.049,0.175c-0.04,0.042-0.08,0.084-0.119,0.127
				c-6.674,7.313-18.103,21.173-14.134,26.343c1.468,1.918,9.287-2.641,9.287-2.641s1.405,4.278,2.733,4.566
				c2.409,0.534,8.17-5.529,8.17-5.529s4.777,5.852,6.976,5.529c1.665-0.246,3.843-5.529,3.843-5.529s7.074,4.658,8.43,2.887
				C456.211,362.326,443.376,348.753,436.049,341.721z"/>
		</g>
		<g>
			<g>
				<polygon style="fill:#263238;" points="354.213,350.263 350.672,457.555 359.974,457.555 356.433,350.263 				"/>
				<path style="fill:#407BFF;" d="M354.326,373.73c0,0-51.038,50.554-39.377,65.764c3.118,4.06,19.693-5.614,19.693-5.614
					s3.04,9.078,5.796,9.691c5.105,1.132,17.335-11.729,17.335-11.729s10.114,12.412,14.778,11.729
					c3.533-0.518,8.154-11.729,8.154-11.729s14.994,9.872,17.844,6.124C410.33,422.401,354.326,373.73,354.326,373.73z"/>
				<path style="fill:#407BFF;" d="M354.637,346.601c0,0-44.318,43.903-34.178,57.11c2.703,3.524,17.102-4.871,17.102-4.871
					s2.643,7.877,5.035,8.413c4.431,0.976,15.046-10.183,15.046-10.183s8.784,10.779,12.835,10.183
					c3.075-0.458,7.082-10.183,7.082-10.183s13.025,8.577,15.495,5.312C403.273,388.889,354.637,346.601,354.637,346.601z"/>
				<path style="fill:#407BFF;" d="M355.008,327.132c0,0-36.121,35.776-27.864,46.538c2.202,2.868,13.932-3.973,13.932-3.973
					s2.159,6.426,4.103,6.858c3.619,0.803,12.265-8.3,12.265-8.3s7.16,8.784,10.468,8.3c2.496-0.371,5.77-8.3,5.77-8.3
					s10.607,6.987,12.628,4.319C394.653,361.595,355.008,327.132,355.008,327.132z"/>
				<path style="fill:#407BFF;" d="M361.141,315.135c-3.132-3.013-8.113-2.916-11.126,0.216c-0.049,0.051-0.098,0.103-0.146,0.156
					c-8.205,8.991-22.258,26.033-17.378,32.39c1.805,2.358,11.418-3.248,11.418-3.248s1.727,5.26,3.36,5.614
					c2.963,0.656,10.045-6.798,10.045-6.798s5.873,7.195,8.577,6.798c2.047-0.302,4.725-6.798,4.725-6.798s8.698,5.727,10.365,3.55
					C385.93,340.468,370.149,323.781,361.141,315.135z"/>
			</g>
			<g>
				<path style="fill:none;stroke:#407BFF;stroke-width:0.5;stroke-linecap:round;stroke-linejoin:round;stroke-miterlimit:10;" d="
					M370.072,319.197c3.554,4.022,6.527,7.935,9.726,11.935"/>
				<path style="fill:none;stroke:#407BFF;stroke-width:0.5;stroke-linecap:round;stroke-linejoin:round;stroke-miterlimit:10;" d="
					M369.098,318.272c-0.416-0.449-0.208-0.225-0.625-0.674"/>
			</g>
		</g>
	</g>
</g>
<g id="Alien_Spaceship">
	<g>
		<g>
			<polyline style="opacity:0.3;fill:#407BFF;" points="185.865,201.219 129.606,451.603 371.591,451.603 312.402,201.219 			"/>
			<path style="fill:none;stroke:#407BFF;stroke-width:0.5;stroke-linecap:round;stroke-linejoin:round;stroke-miterlimit:10;" d="
				M185.584,251.41c-7.627,33.615-15.254,67.23-22.882,100.846"/>
			<path style="fill:none;stroke:#407BFF;stroke-width:0.5;stroke-linecap:round;stroke-linejoin:round;stroke-miterlimit:10;" d="
				M185.944,250c0.383-1.531,0.054-0.215,0.437-1.747"/>
			<path style="fill:none;stroke:#407BFF;stroke-width:0.5;stroke-linecap:round;stroke-linejoin:round;stroke-miterlimit:10;" d="
				M253.765,300.881c-2.075,21.641-4.151,43.282-6.226,64.924"/>
			<path style="fill:none;stroke:#407BFF;stroke-width:0.5;stroke-linecap:round;stroke-linejoin:round;stroke-miterlimit:10;" d="
				M257.866,332.152c1.767-19.328,3.534-38.657,5.301-57.986"/>
		</g>
		<path style="fill:#407BFF;" d="M248.041,86.01c-45.661,0-82.677,33.541-82.677,74.915h165.354
			C330.718,119.55,293.702,86.01,248.041,86.01z"/>
		<path style="opacity:0.3;fill:#FFFFFF;" d="M248.041,86.01c-45.661,0-82.677,33.541-82.677,74.915h165.354
			C330.718,119.55,293.702,86.01,248.041,86.01z"/>
		<path style="opacity:0.3;fill:#FFFFFF;" d="M248.041,86.01l-33.512,29.844l27.26-1.765l22.34-26.656
			C264.129,87.432,253.291,85.855,248.041,86.01z"/>
		<ellipse style="fill:#407BFF;" cx="248.041" cy="156.765" rx="177.415" ry="42.677"/>
		<ellipse style="opacity:0.3;" cx="248.041" cy="156.765" rx="177.415" ry="42.677"/>
		<ellipse style="fill:#407BFF;" cx="248.143" cy="175.134" rx="104.344" ry="18.369"/>
		<polygon style="fill:#407BFF;" points="144.135,176.617 159.601,199.442 337.44,199.442 352.486,176.402 246.2,165.216 		"/>
		<ellipse style="fill:#407BFF;" cx="248.041" cy="196.821" rx="89.747" ry="18.369"/>
		<ellipse style="opacity:0.3;" cx="248.041" cy="196.821" rx="89.747" ry="18.369"/>
		<ellipse style="opacity:0.3;" cx="248.041" cy="198.377" rx="71.217" ry="14.576"/>
		<path style="fill:#407BFF;" d="M180.908,193.503l5.637,9.727l125.634-1.392l2.995-8.336
			C301.599,184.217,216.132,175.998,180.908,193.503z"/>
		<ellipse style="fill:#407BFF;" cx="249.133" cy="201.218" rx="63.268" ry="11.535"/>
		<ellipse style="opacity:0.3;fill:#FFFFFF;" cx="249.133" cy="201.218" rx="63.268" ry="11.535"/>
		<path style="fill:#FFFFFF;" d="M74.107,165.216"/>
		<g style="opacity:0.3;">
			<path style="fill:#FFFFFF;" d="M248.041,114.088c-97.984,0-177.415,19.107-177.415,42.677c0,3.036,1.327,5.997,3.833,8.853
				c8.257-17.961,31.58-25.861,51.645-30.786c75.9-18.632,157.681-18.607,234.38-3.598c23.331,4.565,47.839,11.618,64.742,27.725
				c0.153-0.726,0.23-1.458,0.23-2.193C425.456,133.195,346.024,114.088,248.041,114.088z"/>
		</g>
		<polygon style="opacity:0.3;" points="143.799,175.134 80.365,156.765 144.135,173.656 		"/>
		<polygon style="opacity:0.3;" points="175.21,125.442 187.656,160.173 190.499,159.821 		"/>
		<polygon style="opacity:0.3;" points="297.181,158.916 303.062,122.576 300.191,159.143 		"/>
		<path style="opacity:0.3;" d="M352.486,176.402l61.497-26.234l-62.846,22.012C351.137,172.18,354.321,173.593,352.486,176.402z"/>
		<polygon style="opacity:0.3;fill:#FFFFFF;" points="248.041,114.088 267.975,88.206 273.223,89.551 253.767,114.224 		"/>
		<ellipse style="fill:#FFFFFF;" cx="149.373" cy="156.765" rx="5.111" ry="1.416"/>
		<path style="fill:#FFFFFF;" d="M250.32,148.752c0,0.782-2.288,1.415-5.111,1.415c-2.823,0-5.111-0.634-5.111-1.415
			c0-0.782,2.288-1.415,5.111-1.415C248.031,147.337,250.32,147.971,250.32,148.752z"/>
		<path style="fill:#FFFFFF;" d="M365.183,186.11c0,0.782-2.288,1.415-5.111,1.415c-2.823,0-5.111-0.634-5.111-1.415
			c0-0.782,2.288-1.415,5.111-1.415C362.895,184.694,365.183,185.328,365.183,186.11z"/>
		<path style="fill:#FFFFFF;" d="M342.765,157.927c-0.178,0.761-2.55,0.858-5.299,0.216c-2.749-0.642-4.833-1.78-4.655-2.541
			c0.178-0.761,2.55-0.858,5.299-0.216C340.859,156.029,342.943,157.166,342.765,157.927z"/>
		<path style="fill:#FFFFFF;" d="M143.817,184.654c0,0.782-2.288,1.415-5.111,1.415c-2.823,0-5.111-0.634-5.111-1.415
			c0-0.782,2.288-1.415,5.111-1.415C141.528,183.238,143.817,183.872,143.817,184.654z"/>
		<path style="fill:none;stroke:#407BFF;stroke-width:0.5;stroke-miterlimit:10;" d="M181.631,108.053
			c9.38-9.643,19.821-18.018,32.502-21.747"/>
		<path style="fill:none;stroke:#407BFF;stroke-width:0.5;stroke-miterlimit:10;" d="M217.337,85.389
			c0.517-0.132,1.034-0.264,1.55-0.396"/>
	</g>
</g>
</svg>
